 http://img710.imageshack.us/img710/2524/dontlethimin2011.jpg

Country.......: United Kingdom
Genre.........: Horror, Thriller
Date release..: 2011 [World]
Director......: Kelly Smith
Writers.......: Kelly Smith, Chris Andrews
Duration......: 76 min.
More..........: http://www.imdb.com/title/tt1400515
Trailer.......:

Pilot :
Two couples spend a weekend in the country, only to cross paths with a brutal serial killer. As the body count rises, suspicion spirals into paranoia, climaxing in a terrifying battle for survival. 

Cats :
Sophie Linfield   	 ...  	Paige
Sam Hazeldine 	... 	Shawn
Gordon Alexander 	... 	Tristan
Gemma Harvey 	... 	Mandy
Rhys Meredith 	... 	Calvin
Esther Shephard 	... 	Emer
Jason Carter 	... 	Sgt Utley
Katie Don Hughes 	... 	Schoolteacher
Poppy Grout 	... 	Ellie
Clemmie Rubens 	... 	Girl 1 

Data Technical :
!!! SAMPLE !!!
Audio.....: English
Subtitles.: None
Format                           : AVI
Format/Info                      : Audio Video Interleave
File size                        : 1.14 GiB
Duration                         : 1h 15mn
Overall bit rate                 : 2 139 Kbps
Writing application              : VirtualDubMod 1.5.4.1 (build 2178/release)
Writing library                  : VirtualDubMod build 2178/release
Video
ID                               : 0
Format                           : MPEG-4 Visual
Format profile                   : Simple@L3
Format settings, BVOP            : No
Format settings, QPel            : No
Format settings, GMC             : No warppoints
Format settings, Matrix          : Default (H.263)
Codec ID                         : XVID
Codec ID/Hint                    : XviD
Duration                         : 1h 15mn
Bit rate                         : 1 684 Kbps
Width                            : 720 pixels
Height                           : 400 pixels
Display aspect ratio             : 16:9
Frame rate                       : 25.000 fps
Color space                      : YUV
Chroma subsampling               : 4:2:0
Bit depth                        : 8 bits
Scan type                        : Progressive
Bits/(Pixel*Frame)               : 0.234
Stream size                      : 915 MiB (79%)
Writing library                  : XviD 1.2.1 (UTC 2008-12-04)
Audio
ID                               : 1
Format                           : AC-3
Format/Info                      : Audio Coding 3
Mode extension                   : CM (complete main)
Codec ID                         : 2000
Duration                         : 1h 15mn
Bit rate mode                    : Constant
Bit rate                         : 448 Kbps
Channel(s)                       : 6 channels
Channel positions                : Front: L C R, Side: L R, LFE
Sampling rate                    : 48.0 KHz
Bit depth                        : 16 bits
Stream size                      : 243 MiB (21%)
Alignment                        : Split accross interleaves
Interleave, duration             : 80 ms (2.00 video frames)
Interleave, preload duration     : 500 ms

Screen : 
http://img16.imageshack.us/img16/1566/dontlethimin2011s1.jpg 
http://img233.imageshack.us/img233/4141/dontlethimin2011s2.jpg 
http://img43.imageshack.us/img43/7031/dontlethimin2011s3.jpg 
http://img607.imageshack.us/img607/2572/dontlethimin2011s4.jpg 
http://img855.imageshack.us/img855/1686/dontlethimin2011s5.jpg